<svg width="16" height="16" viewBox="0 0 16 16" fill="none" xmlns="http://www.w3.org/2000/svg">
<path d="M3.52869 7.80468C3.40371 7.67966 3.3335 7.51012 3.3335 7.33334C3.3335 7.15657 3.40371 6.98703 3.52869 6.86201L7.52869 2.86201C7.65371 2.73703 7.82324 2.66682 8.00002 2.66682C8.1768 2.66682 8.34634 2.73703 8.47135 2.86201L12.4714 6.86201C12.5928 6.98775 12.66 7.15615 12.6585 7.33094C12.657 7.50574 12.5868 7.67295 12.4632 7.79656C12.3396 7.92016 12.1724 7.99027 11.9976 7.99179C11.8228 7.99331 11.6544 7.92612 11.5287 7.80468L8.66669 4.94268V12.6667C8.66669 12.8435 8.59645 13.0131 8.47143 13.1381C8.3464 13.2631 8.17683 13.3333 8.00002 13.3333C7.82321 13.3333 7.65364 13.2631 7.52862 13.1381C7.40359 13.0131 7.33335 12.8435 7.33335 12.6667V4.94268L4.47135 7.80468C4.34634 7.92966 4.1768 7.99987 4.00002 7.99987C3.82324 7.99987 3.65371 7.92966 3.52869 7.80468Z" fill="#189825"/>
</svg>
