<svg width="16" height="16" viewBox="0 0 16 16" fill="none" xmlns="http://www.w3.org/2000/svg">
<path d="M12.4713 8.19532C12.5963 8.32034 12.6665 8.48988 12.6665 8.66666C12.6665 8.84343 12.5963 9.01297 12.4713 9.13799L8.47131 13.138C8.34629 13.263 8.17676 13.3332 7.99998 13.3332C7.8232 13.3332 7.65366 13.263 7.52865 13.138L3.52865 9.13799C3.40721 9.01225 3.34001 8.84385 3.34153 8.66906C3.34305 8.49426 3.41316 8.32705 3.53677 8.20344C3.66037 8.07984 3.82758 8.00973 4.00238 8.00821C4.17718 8.00669 4.34558 8.07388 4.47131 8.19532L7.33331 11.0573L7.33331 3.33332C7.33331 3.15651 7.40355 2.98694 7.52857 2.86192C7.6536 2.73689 7.82317 2.66666 7.99998 2.66666C8.17679 2.66666 8.34636 2.73689 8.47138 2.86192C8.59641 2.98694 8.66665 3.15651 8.66665 3.33332V11.0573L11.5286 8.19532C11.6537 8.07034 11.8232 8.00013 12 8.00013C12.1768 8.00013 12.3463 8.07034 12.4713 8.19532Z" fill="#BD0D0D"/>
</svg>
