<svg width="375" height="227" viewBox="0 0 375 227" fill="none" xmlns="http://www.w3.org/2000/svg">
<g clip-path="url(#clip0_1_1258)">
<rect width="375" height="227" fill="#0166F4"/>
<g filter="url(#filter0_f_1_1258)">
<rect x="124.803" y="53.6587" width="136.731" height="56" rx="28" transform="rotate(-153.019 124.803 53.6587)" fill="url(#paint0_linear_1_1258)"/>
</g>
<g filter="url(#filter1_f_1_1258)">
<rect x="242" y="103.037" width="281.202" height="122.072" rx="61.0361" transform="rotate(-77.0385 242 103.037)" fill="url(#paint1_linear_1_1258)"/>
</g>
<g filter="url(#filter2_f_1_1258)">
<rect x="-0.177734" y="53" width="256.71" height="111.44" rx="40" transform="rotate(31.2561 -0.177734 53)" fill="url(#paint2_linear_1_1258)"/>
</g>
<g opacity="0.25">
<path d="M-124.178 -689C-151.186 -677.574 -202.709 -639.763 -192.737 -579.93C-161.314 -391.394 580.883 -353.998 502.197 -91.4506C423.51 171.097 12.1593 153.178 37.8687 389.238C63.5781 625.297 442.987 655.681 411.045 887.845C385.491 1073.58 208.226 1227.52 122.788 1281.28" stroke="#D7D9E4" stroke-width="3.11629"/>
<path d="M249.055 -561.38C126.085 -555.394 -120.032 -485.431 -120.745 -253.46C-91.0533 39.6942 397.636 23.6675 322.659 298.087C247.683 572.506 -185.185 554.111 -114.215 804.002C-54.625 1014.96 313.162 915.373 368.773 1087.44C424.688 1257.29 265.379 1396.94 201.458 1445.25" stroke="#376BF5" stroke-width="3.11629"/>
<path d="M229.096 -567.762C110.924 -561.504 -125.465 -493.149 -125.643 -269.784C-95.8645 18.1389 405.5 4.78333 330.338 278.609C255.176 552.435 -176.616 534.063 -107.909 783.263C-50.0131 995.474 318.355 902.387 369.589 1077.46C421.43 1248.1 261.223 1388.47 196.226 1437.05" stroke="#3F71F4" stroke-width="3.11629"/>
<path d="M210.436 -574.142C97.062 -567.613 -129.596 -500.864 -129.24 -286.107C-99.3757 -3.41493 414.664 -14.0994 339.317 259.133C263.969 532.365 -166.747 514.017 -100.303 762.526C-44.101 975.991 324.848 889.403 371.704 1067.48C419.472 1238.92 258.367 1380 192.294 1428.86" stroke="#4776F3" stroke-width="3.11629"/>
<path d="M191.778 -580.524C83.2022 -573.722 -133.727 -508.582 -132.836 -302.431C-102.885 -24.9699 423.83 -32.9832 348.297 239.655C272.764 512.294 -156.876 493.97 -92.6953 741.787C-38.1871 956.508 331.343 876.418 373.821 1057.5C417.516 1229.73 255.513 1371.53 188.365 1420.66" stroke="#4F7CF3" stroke-width="3.11629"/>
<path d="M173.123 -586.904C69.3456 -579.83 -137.853 -516.297 -136.429 -318.754C-106.391 -46.5236 433 -51.8658 357.281 220.179C281.563 492.224 -147.002 473.924 -85.0841 721.049C-32.2699 937.025 337.841 863.434 375.942 1047.52C415.564 1220.55 252.663 1363.06 184.438 1412.46" stroke="#5781F2" stroke-width="3.11629"/>
<path d="M154.471 -593.285C55.4916 -585.94 -141.978 -524.015 -140.019 -335.078C-109.894 -68.0785 442.172 -70.7496 366.268 200.702C290.364 472.153 -137.125 453.877 -77.4703 700.311C-26.3502 917.542 344.342 850.449 378.065 1037.54C413.613 1211.36 249.815 1354.58 180.514 1404.26" stroke="#5F87F1" stroke-width="3.11629"/>
<path d="M135.82 -599.666C41.6386 -592.048 -146.101 -531.731 -143.608 -351.401C-113.397 -89.6324 451.345 -89.6324 375.255 181.225C299.166 452.083 -127.247 433.831 -69.8555 679.573C-20.4294 898.059 350.844 837.465 380.189 1027.56C411.664 1202.18 246.968 1346.11 176.591 1396.06" stroke="#678CF0" stroke-width="3.11629"/>
<path d="M117.174 -606.047C27.791 -598.157 -150.219 -539.447 -147.191 -367.725C-116.894 -111.187 460.523 -108.516 384.248 161.749C307.973 432.013 -117.364 413.784 -62.2353 658.835C-14.5033 878.576 357.351 824.48 382.319 1017.58C409.72 1192.99 244.126 1337.64 172.674 1387.86" stroke="#6F92EF" stroke-width="3.11629"/>
<path d="M98.5325 -612.428C13.9474 -604.266 -154.332 -547.164 -150.771 -384.048C-120.387 -132.741 469.705 -127.399 393.245 142.272C316.784 411.943 -107.477 393.738 -54.6111 638.097C-8.57315 859.093 363.863 811.496 384.452 1007.6C407.78 1183.8 241.288 1329.17 168.76 1379.66" stroke="#7797EE" stroke-width="3.11629"/>
<path d="M79.894 -618.808C0.106961 -610.375 -158.443 -554.88 -154.347 -400.371C-123.877 -154.295 478.891 -146.282 402.245 122.795C325.599 391.873 -97.5862 373.692 -46.9838 617.359C-2.6398 839.611 370.377 798.512 386.589 997.621C405.844 1174.62 238.454 1320.7 164.85 1371.46" stroke="#7F9DED" stroke-width="3.11629"/>
<path d="M61.262 -625.19C-13.7269 -616.485 -162.547 -562.597 -157.917 -416.696C-127.36 -175.85 488.083 -165.166 411.251 103.318C334.42 371.801 -87.6893 353.644 -39.3499 596.62C3.30002 820.127 376.898 785.526 388.732 987.64C403.913 1165.43 235.626 1312.23 160.946 1363.26" stroke="#87A2ED" stroke-width="3.11629"/>
<path d="M42.6366 -631.572C-27.5543 -622.594 -166.645 -570.314 -161.481 -433.019C-130.837 -197.405 497.282 -184.05 420.265 83.8404C343.248 351.73 -77.7858 333.597 -31.7094 575.881C9.24647 800.643 383.425 772.541 390.882 977.66C401.99 1156.25 232.805 1303.76 157.049 1355.07" stroke="#8FA8EC" stroke-width="3.11629"/>
<path d="M24.0196 -637.952C-41.3731 -628.702 -170.734 -578.03 -165.036 -449.342C-134.305 -218.959 506.489 -202.932 429.286 64.3643C352.084 331.661 -67.8739 313.551 -24.0604 555.144C15.2014 781.161 389.961 759.558 393.041 967.682C400.075 1147.06 229.992 1295.29 153.16 1346.87" stroke="#97ADEB" stroke-width="3.11629"/>
<path d="M5.41103 -644.333C-55.1836 -634.811 -174.815 -585.746 -168.582 -465.665C-137.765 -240.513 515.704 -221.815 438.316 44.8877C360.928 311.591 -57.9535 293.505 -16.4031 534.406C21.1647 761.678 396.506 746.573 395.207 957.702C398.168 1137.88 227.187 1286.82 149.28 1338.67" stroke="#9FB3EA" stroke-width="3.11629"/>
<path d="M-13.1839 -650.714C-68.9804 -640.92 -178.882 -593.463 -172.115 -481.989C-141.212 -262.068 524.933 -240.699 447.36 25.4102C369.786 291.519 -48.0196 273.458 -8.73216 513.667C27.1416 742.195 403.064 733.588 397.388 947.722C396.275 1128.69 224.396 1278.35 145.413 1330.47" stroke="#A7B8E9" stroke-width="3.11629"/>
<path d="M-31.7644 -657.095C-82.7628 -647.029 -182.934 -601.18 -175.633 -498.313C-144.643 -283.622 534.177 -259.582 456.418 5.93316C378.659 271.449 -38.0712 253.411 -1.04678 492.928C33.1329 722.712 409.636 720.603 399.582 937.742C394.396 1119.5 221.62 1269.87 141.561 1322.27" stroke="#AFBEE8" stroke-width="3.11629"/>
<path d="M-50.3246 -663.476C-96.5249 -653.138 -186.967 -608.896 -179.131 -514.636C-148.055 -305.177 543.441 -278.465 465.496 -13.5433C387.552 251.379 -28.1025 233.365 6.65896 472.19C39.1446 703.229 416.229 707.619 401.798 927.763C392.538 1110.32 218.864 1261.4 137.729 1314.07" stroke="#B7C3E7" stroke-width="3.11629"/>
<path d="M-68.8595 -669.857C-110.262 -659.246 -190.974 -616.613 -182.604 -530.959C-151.441 -326.73 552.73 -297.348 474.6 -33.0197C396.47 231.309 -18.1085 213.319 14.39 451.453C45.1815 683.746 422.847 694.635 404.038 917.784C390.705 1101.13 216.133 1252.93 133.922 1305.87" stroke="#BFC9E7" stroke-width="3.11629"/>
<path d="M-87.3572 -676.238C-123.961 -665.355 -194.944 -624.329 -186.04 -547.283C-154.79 -348.285 562.056 -316.232 483.741 -52.4967C405.425 211.238 -8.07728 193.272 22.1582 430.714C51.2557 664.263 429.502 681.65 406.316 907.804C388.909 1091.95 213.439 1244.46 130.153 1297.67" stroke="#C7CEE6" stroke-width="3.11629"/>
<path d="M-105.805 -682.619C-137.611 -671.464 -198.863 -632.046 -189.425 -563.606C-158.089 -369.839 571.433 -335.115 492.932 -71.9736C414.431 191.168 2.00423 173.225 29.9767 409.976C57.3801 644.78 436.208 668.666 408.643 897.825C387.163 1082.76 210.796 1235.99 126.433 1289.48" stroke="#CFD4E5" stroke-width="3.11629"/>
</g>
<path d="M93.9293 101.284C85.8004 103.927 84.6423 112.294 85.0793 116.147H93.9293C97.4487 121.431 101.733 119.45 103.435 117.798L101.14 116.807L107.04 113.835L109.663 119.78L107.368 119.119C102.648 126.253 95.7867 123.853 92.946 121.761L94.9127 119.119L86.7182 118.789L87.3738 127.376L89.6682 125.064C93.3393 128.499 99.5016 128.477 102.124 128.037C113.137 124.866 113.705 116.147 112.613 112.183H104.09C100.944 106.371 96.4423 108.881 94.5849 110.862L95.896 111.523L90.9793 114.165L89.0126 107.89L90.9793 108.881C96.7482 101.747 103.216 104.807 105.729 107.229L104.09 108.881H110.974L110.646 102.275L109.007 103.927C107.368 101.945 102.058 98.6422 93.9293 101.284Z" fill="#FCFFFF"/>
<path d="M95.5682 99.3028V96H98.1905V99.3028H95.5682Z" fill="#FCFFFF"/>
<path d="M100.157 99.3028V96H102.452V99.3028H100.157Z" fill="#FCFFFF"/>
<path d="M95.5682 132V128.697H98.1905V132H95.5682Z" fill="#FCFFFF"/>
<path d="M100.157 132V128.697H102.452V132H100.157Z" fill="#FCFFFF"/>
<path d="M93.9293 101.284C85.8004 103.927 84.6423 112.294 85.0793 116.147H93.9293C97.4487 121.431 101.733 119.45 103.435 117.798L101.14 116.807L107.04 113.835L109.663 119.78L107.368 119.119C102.648 126.253 95.7867 123.853 92.946 121.761L94.9127 119.119L86.7182 118.789L87.3738 127.376L89.6682 125.064C93.3393 128.499 99.5016 128.477 102.124 128.037C113.137 124.866 113.705 116.147 112.613 112.183H104.09C100.944 106.371 96.4423 108.881 94.5849 110.862L95.896 111.523L90.9793 114.165L89.0126 107.89L90.9793 108.881C96.7482 101.747 103.216 104.807 105.729 107.229L104.09 108.881H110.974L110.646 102.275L109.007 103.927C107.368 101.945 102.058 98.6422 93.9293 101.284Z" stroke="#FCFFFF" stroke-width="0.630858"/>
<path d="M95.5682 99.3028V96H98.1905V99.3028H95.5682Z" stroke="#FCFFFF" stroke-width="0.630858"/>
<path d="M100.157 99.3028V96H102.452V99.3028H100.157Z" stroke="#FCFFFF" stroke-width="0.630858"/>
<path d="M95.5682 132V128.697H98.1905V132H95.5682Z" stroke="#FCFFFF" stroke-width="0.630858"/>
<path d="M100.157 132V128.697H102.452V132H100.157Z" stroke="#FCFFFF" stroke-width="0.630858"/>
<g clip-path="url(#clip1_1_1258)">
<path d="M143.616 106.801C143.73 108.617 143.019 109.188 141.335 109.132C137.609 109.006 133.876 109.057 130.148 109.113C127.088 109.159 126.398 109.935 126.35 113.435C129.472 113.435 132.6 113.435 136.164 113.426C137.601 113.392 138.601 113.368 139.781 113.39C140.328 113.406 140.695 113.376 141.224 113.382C141.605 113.395 141.823 113.372 142.042 113.349C144.288 113.815 143.163 115.373 143.289 116.858C138.41 116.858 133.728 116.81 129.049 116.896C128.049 116.914 126.375 116.071 126.313 118.198C126.261 119.972 126.99 121.297 128.885 121.402C131.552 121.55 134.229 121.495 136.902 121.535C139.008 121.566 141.114 121.609 143.398 121.898C143.615 122.49 143.654 122.831 143.693 123.172C143.581 123.882 143.469 124.591 143.337 125.423C138.176 125.423 133.076 125.689 128.018 125.342C123.628 125.04 121.991 122.838 121.898 118.395C121.869 117.015 121.891 115.634 121.882 113.854C121.846 112.935 121.818 112.416 121.851 111.708C122.606 106.952 124.475 105.237 129.288 105.139C134.003 105.043 138.722 105.158 143.439 105.18C143.485 105.661 143.53 106.143 143.616 106.801Z" fill="white"/>
<path d="M169.801 126.778C169.803 123.193 169.85 119.788 169.869 116.383C169.897 111.473 170.686 110.472 175.586 109.383C176.291 109.353 176.814 109.376 177.755 109.409C180.88 109.296 183.586 109.175 186.293 109.053C186.335 109.131 186.378 109.21 186.548 109.329C191.329 110.715 191.912 111.493 191.931 116.391C191.964 124.754 191.186 125.528 182.756 125.527C179.934 125.526 177.112 125.527 173.971 125.527C173.971 126.782 173.973 127.737 173.97 128.693C173.961 132.27 173.96 132.27 169.995 131.757C169.948 130.696 169.899 129.589 169.803 128.264C169.782 127.684 169.808 127.321 169.801 126.778ZM184.591 112.854C183.618 112.852 182.645 112.849 181.671 112.848C173.593 112.839 173.181 113.305 174.083 121.442C174.1 121.591 174.214 121.729 174.411 122.138C177.016 122.138 179.75 122.154 182.483 122.134C187.703 122.096 187.95 121.829 187.823 116.577C187.817 116.333 187.823 116.089 187.812 115.846C187.732 114.058 186.989 112.892 184.591 112.854Z" fill="white"/>
<path d="M250.952 119.229C251.021 117.529 251.023 115.823 251.175 114.13C251.4 111.636 252.726 109.967 255.283 109.785C258.748 109.539 262.23 109.526 265.932 109.372C266.52 109.354 266.882 109.378 267.424 109.374C271.184 110.309 273.054 114.22 271.439 117.726C271.185 118.277 270.001 118.649 269.236 118.668C265.665 118.76 262.091 118.699 258.519 118.693C257.557 118.691 256.596 118.693 255.557 118.693C254.986 121.191 256.18 122.06 258.176 122.103C261.504 122.175 264.834 122.127 268.163 122.13C269.038 122.13 269.913 122.13 270.964 122.13C270.964 123.315 270.964 124.243 270.964 125.099C265.447 125.099 259.963 125.286 254.501 125.011C252.194 124.895 251.318 122.765 251.064 120.229C251.006 119.67 250.979 119.45 250.952 119.229ZM258.276 112.851C256.261 112.906 254.963 113.6 255.501 116.048C259.507 116.048 263.482 116.048 267.414 116.048C268.005 113.532 267.061 112.688 264.8 112.822C262.782 112.941 260.752 112.844 258.276 112.851Z" fill="white"/>
<path d="M286.887 109.655C287.843 109.713 288.722 109.794 289.569 109.872C290.411 112.896 290.213 113.158 287.212 113.146C285.588 113.14 283.963 113.123 282.339 113.146C279.106 113.19 278.581 113.731 278.56 117.06C278.542 119.885 278.556 122.711 278.556 125.465C274.609 126.229 274.489 126.134 274.479 122.546C274.472 120.184 274.43 117.821 274.474 115.46C274.539 111.93 275.378 110.886 278.884 109.848C279.242 109.743 279.465 109.745 280.059 109.731C281.769 109.623 283.108 109.53 284.447 109.438C284.447 109.438 284.542 109.625 284.796 109.656C285.587 109.664 286.123 109.642 286.66 109.619C286.66 109.619 286.81 109.678 286.887 109.655Z" fill="white"/>
<path d="M186.073 109.027C183.586 109.175 180.88 109.296 177.949 109.375C180.435 109.222 183.144 109.112 186.073 109.027Z" fill="white"/>
<path d="M218.345 123.09C218.193 121.451 218.042 119.811 217.879 117.806C217.846 117.222 217.826 117.004 217.805 116.786C218.635 110.095 219.435 109.407 226.315 109.429C229.395 109.439 232.475 109.431 235.838 109.431C235.838 107.493 235.838 105.744 235.838 104.088C239.675 102.932 240.146 103.262 240.136 106.794C240.125 111.04 240.182 115.287 240.093 119.531C240.008 123.601 238.569 125.23 234.551 125.457C230.899 125.663 227.205 125.741 223.574 125.403C221.877 125.245 220.284 123.971 218.457 123.152C218.269 123.101 218.345 123.09 218.345 123.09ZM233.308 122.076C234.138 121.339 235.554 120.693 235.685 119.847C236.025 117.652 235.799 115.368 235.799 112.878C233.095 112.878 230.601 112.864 228.107 112.881C222.08 112.922 221.964 113.105 222.174 119.04C222.251 121.231 223.257 122.132 225.331 122.119C227.847 122.104 230.362 122.114 233.308 122.076Z" fill="white"/>
<path d="M208.496 109.437C209.699 109.464 210.682 109.419 211.648 109.531C213.704 109.767 214.803 110.907 214.997 113.043C215.497 118.537 215.392 118.692 209.961 118.694C206.314 118.696 202.666 118.695 198.898 118.695C198.437 121.183 199.604 122.069 201.618 122.107C204.954 122.172 208.292 122.136 211.629 122.142C212.496 122.144 213.362 122.142 214.18 122.142C214.838 124.501 214.61 125.704 211.993 125.58C208.339 125.406 204.669 125.601 201.007 125.534C196.148 125.445 194.651 123.873 194.61 118.996C194.598 117.608 194.584 116.219 194.637 114.833C194.77 111.368 196.156 109.807 199.727 109.542C202.561 109.333 205.42 109.46 208.496 109.437ZM199.003 113.968C198.907 114.644 198.811 115.32 198.698 116.112C202.912 116.112 206.828 116.112 211.439 116.112C210.827 114.822 210.401 113.14 209.971 113.139C206.4 113.131 202.828 113.434 199.003 113.968Z" fill="white"/>
<path d="M248.104 118.263C248.063 119.565 247.993 120.866 247.986 122.169C247.967 125.777 247.948 125.801 243.981 125.322C243.981 120.124 243.981 114.896 243.981 109.69C247.843 109.067 247.974 109.171 247.985 112.668C247.989 113.892 248.001 115.116 248.019 116.746C248.053 117.522 248.079 117.892 248.104 118.263Z" fill="white"/>
<path d="M204.187 107.442C203.618 107.251 202.911 107.077 202.902 106.871C202.776 104.205 206.292 101.452 209.388 102.094C207.6 103.941 207.531 107.021 204.187 107.442Z" fill="white"/>
<path d="M243.802 105.553C243.786 105.174 243.77 104.794 244.019 104.235C245.183 104.359 246.081 104.662 246.979 104.966C246.693 105.791 246.407 106.617 246.121 107.442C245.902 107.472 245.682 107.502 245.211 107.374C244.573 106.663 244.188 106.108 243.802 105.553Z" fill="white"/>
<path d="M246.317 107.477C246.407 106.617 246.693 105.791 246.979 104.966C246.081 104.662 245.183 104.359 244.095 104.058C245.095 103.847 246.286 103.634 247.789 103.364C247.477 105.093 249.218 106.909 246.317 107.477Z" fill="white"/>
<path d="M243.76 105.737C244.187 106.108 244.573 106.663 245.047 107.339C244.663 106.948 244.19 106.435 243.76 105.737Z" fill="white"/>
<path d="M147.019 111.124C146.817 110.706 146.614 110.287 146.396 109.835C151.844 107.69 153.553 113.078 156.932 114.968C159.268 113.093 161.43 111.142 163.831 109.555C164.61 109.039 166.014 109.474 167.089 109.474C164.533 112.102 162.042 114.662 159.422 117.357C162.379 120.069 164.986 122.459 167.839 125.075C161.979 127.064 160.004 121.799 156.508 119.848C152.889 121.59 151.14 126.879 145.351 125.148C148.263 122.461 150.946 119.985 153.838 117.316C153.062 116.59 152.376 115.948 151.507 115.15C151.259 114.861 151.155 114.781 151.01 114.754C150.081 113.827 149.153 112.9 148 111.791C147.524 111.447 147.271 111.286 147.019 111.124Z" fill="white"/>
<path d="M139.781 113.39C140.027 113.267 140.452 113.19 140.97 113.229C140.695 113.376 140.328 113.406 139.781 113.39Z" fill="white"/>
<path d="M140.839 111.632C140.827 111.611 140.85 111.653 140.839 111.632V111.632Z" fill="white"/>
</g>
</g>
<defs>
<filter id="filter0_f_1_1258" x="8.604" y="-52.6309" width="135.957" height="100.64" filterUnits="userSpaceOnUse" color-interpolation-filters="sRGB">
<feFlood flood-opacity="0" result="BackgroundImageFix"/>
<feBlend mode="normal" in="SourceGraphic" in2="BackgroundImageFix" result="shape"/>
<feGaussianBlur stdDeviation="2" result="effect1_foregroundBlur_1_1258"/>
</filter>
<filter id="filter1_f_1_1258" x="250.122" y="-162.878" width="165.792" height="285.174" filterUnits="userSpaceOnUse" color-interpolation-filters="sRGB">
<feFlood flood-opacity="0" result="BackgroundImageFix"/>
<feBlend mode="normal" in="SourceGraphic" in2="BackgroundImageFix" result="shape"/>
<feGaussianBlur stdDeviation="2" result="effect1_foregroundBlur_1_1258"/>
</filter>
<filter id="filter2_f_1_1258" x="-47.0571" y="63.943" width="255.386" height="206.577" filterUnits="userSpaceOnUse" color-interpolation-filters="sRGB">
<feFlood flood-opacity="0" result="BackgroundImageFix"/>
<feBlend mode="normal" in="SourceGraphic" in2="BackgroundImageFix" result="shape"/>
<feGaussianBlur stdDeviation="2" result="effect1_foregroundBlur_1_1258"/>
</filter>
<linearGradient id="paint0_linear_1_1258" x1="164.021" y1="253.659" x2="207.74" y2="80.3877" gradientUnits="userSpaceOnUse">
<stop stop-color="#D9D9D9"/>
<stop offset="1" stop-color="#D9D9D9" stop-opacity="0"/>
</linearGradient>
<linearGradient id="paint1_linear_1_1258" x1="322.655" y1="539.009" x2="422.928" y2="164.073" gradientUnits="userSpaceOnUse">
<stop stop-color="#D9D9D9"/>
<stop offset="1" stop-color="#D9D9D9" stop-opacity="0"/>
</linearGradient>
<linearGradient id="paint2_linear_1_1258" x1="73.4522" y1="450.999" x2="198.117" y2="165.43" gradientUnits="userSpaceOnUse">
<stop stop-color="#D9D9D9"/>
<stop offset="1" stop-color="#D9D9D9" stop-opacity="0"/>
</linearGradient>
<clipPath id="clip0_1_1258">
<rect width="375" height="227" fill="white"/>
</clipPath>
<clipPath id="clip1_1_1258">
<rect width="169" height="30" fill="white" transform="translate(121 102)"/>
</clipPath>
</defs>
</svg>
