<svg width="49" height="18" viewBox="0 0 49 18" fill="none" xmlns="http://www.w3.org/2000/svg">
<path d="M6.368 14.14C5.556 14.14 4.87467 14.0187 4.324 13.776C3.77333 13.524 3.34867 13.202 3.05 12.81C2.76067 12.4087 2.60667 11.984 2.588 11.536C2.588 11.4613 2.616 11.396 2.672 11.34C2.73733 11.2747 2.812 11.242 2.896 11.242H3.61C3.722 11.242 3.806 11.27 3.862 11.326C3.918 11.382 3.95533 11.4473 3.974 11.522C4.02067 11.746 4.13267 11.97 4.31 12.194C4.49667 12.4087 4.75333 12.5907 5.08 12.74C5.416 12.88 5.84533 12.95 6.368 12.95C7.17067 12.95 7.75867 12.81 8.132 12.53C8.51467 12.2407 8.706 11.858 8.706 11.382C8.706 11.0553 8.60333 10.794 8.398 10.598C8.202 10.3927 7.89867 10.2107 7.488 10.052C7.07733 9.89333 6.54533 9.72067 5.892 9.534C5.21067 9.338 4.646 9.12333 4.198 8.89C3.75 8.65667 3.414 8.36733 3.19 8.022C2.97533 7.67667 2.868 7.238 2.868 6.706C2.868 6.202 3.00333 5.754 3.274 5.362C3.54467 4.96067 3.932 4.64333 4.436 4.41C4.94933 4.17667 5.57 4.06 6.298 4.06C6.87667 4.06 7.38067 4.13933 7.81 4.298C8.24867 4.44733 8.61267 4.65267 8.902 4.914C9.19133 5.166 9.41067 5.44133 9.56 5.74C9.70933 6.02933 9.78867 6.314 9.798 6.594C9.798 6.65933 9.77467 6.72467 9.728 6.79C9.68133 6.846 9.60667 6.874 9.504 6.874H8.762C8.69667 6.874 8.62667 6.85533 8.552 6.818C8.48667 6.78067 8.43533 6.71067 8.398 6.608C8.342 6.22533 8.12733 5.90333 7.754 5.642C7.38067 5.38067 6.89533 5.25 6.298 5.25C5.69133 5.25 5.19667 5.36667 4.814 5.6C4.44067 5.83333 4.254 6.19733 4.254 6.692C4.254 7.00933 4.34267 7.27533 4.52 7.49C4.69733 7.69533 4.97733 7.87733 5.36 8.036C5.74267 8.19467 6.242 8.36267 6.858 8.54C7.60467 8.74533 8.216 8.96467 8.692 9.198C9.168 9.422 9.518 9.70667 9.742 10.052C9.97533 10.388 10.092 10.822 10.092 11.354C10.092 11.942 9.938 12.446 9.63 12.866C9.322 13.2767 8.888 13.594 8.328 13.818C7.77733 14.0327 7.124 14.14 6.368 14.14ZM12.081 14C11.9877 14 11.9083 13.972 11.843 13.916C11.787 13.8507 11.759 13.7713 11.759 13.678V4.382C11.759 4.28867 11.787 4.214 11.843 4.158C11.9083 4.09267 11.9877 4.06 12.081 4.06H12.739C12.8323 4.06 12.907 4.09267 12.963 4.158C13.0283 4.214 13.061 4.28867 13.061 4.382V9.254L15.819 6.958C15.931 6.86467 16.015 6.804 16.071 6.776C16.1363 6.73867 16.239 6.72 16.379 6.72H17.121C17.205 6.72 17.275 6.748 17.331 6.804C17.387 6.86 17.415 6.93 17.415 7.014C17.415 7.05133 17.401 7.09333 17.373 7.14C17.3543 7.18667 17.3123 7.23333 17.247 7.28L14.013 9.968L17.597 13.454C17.709 13.5473 17.765 13.6313 17.765 13.706C17.765 13.79 17.737 13.86 17.681 13.916C17.625 13.972 17.555 14 17.471 14H16.743C16.603 14 16.5003 13.986 16.435 13.958C16.3697 13.9207 16.2857 13.8553 16.183 13.762L13.061 10.78V13.678C13.061 13.7713 13.0283 13.8507 12.963 13.916C12.907 13.972 12.8323 14 12.739 14H12.081ZM19.2857 14C19.1924 14 19.1131 13.972 19.0477 13.916C18.9917 13.8507 18.9637 13.7713 18.9637 13.678V7.042C18.9637 6.94867 18.9917 6.874 19.0477 6.818C19.1131 6.75267 19.1924 6.72 19.2857 6.72H19.9577C20.0511 6.72 20.1257 6.75267 20.1817 6.818C20.2377 6.874 20.2657 6.94867 20.2657 7.042V13.678C20.2657 13.7713 20.2377 13.8507 20.1817 13.916C20.1257 13.972 20.0511 14 19.9577 14H19.2857ZM19.1737 5.362C19.0804 5.362 19.0011 5.334 18.9357 5.278C18.8797 5.21267 18.8517 5.13333 18.8517 5.04V4.284C18.8517 4.19067 18.8797 4.116 18.9357 4.06C19.0011 3.99467 19.0804 3.962 19.1737 3.962H20.0557C20.1491 3.962 20.2237 3.99467 20.2797 4.06C20.3451 4.116 20.3777 4.19067 20.3777 4.284V5.04C20.3777 5.13333 20.3451 5.21267 20.2797 5.278C20.2237 5.334 20.1491 5.362 20.0557 5.362H19.1737ZM22.8271 16.66C22.7337 16.66 22.6544 16.6273 22.5891 16.562C22.5331 16.506 22.5051 16.4313 22.5051 16.338V7.042C22.5051 6.94867 22.5331 6.874 22.5891 6.818C22.6544 6.75267 22.7337 6.72 22.8271 6.72H23.4711C23.5644 6.72 23.6391 6.75267 23.6951 6.818C23.7604 6.874 23.7931 6.94867 23.7931 7.042V7.658C24.0171 7.35 24.3157 7.09333 24.6891 6.888C25.0624 6.68267 25.5291 6.58 26.0891 6.58C26.6117 6.58 27.0551 6.66867 27.4191 6.846C27.7924 7.02333 28.0957 7.266 28.3291 7.574C28.5717 7.882 28.7537 8.232 28.8751 8.624C28.9964 9.016 29.0617 9.436 29.0711 9.884C29.0804 10.0333 29.0851 10.192 29.0851 10.36C29.0851 10.528 29.0804 10.6867 29.0711 10.836C29.0617 11.2747 28.9964 11.6947 28.8751 12.096C28.7537 12.488 28.5717 12.838 28.3291 13.146C28.0957 13.4447 27.7924 13.6873 27.4191 13.874C27.0551 14.0513 26.6117 14.14 26.0891 14.14C25.5477 14.14 25.0904 14.042 24.7171 13.846C24.3531 13.6407 24.0544 13.3887 23.8211 13.09V16.338C23.8211 16.4313 23.7931 16.506 23.7371 16.562C23.6811 16.6273 23.6017 16.66 23.4991 16.66H22.8271ZM25.7951 13.006C26.2804 13.006 26.6584 12.9033 26.9291 12.698C27.2091 12.4833 27.4097 12.208 27.5311 11.872C27.6524 11.5267 27.7224 11.158 27.7411 10.766C27.7504 10.4953 27.7504 10.2247 27.7411 9.954C27.7224 9.562 27.6524 9.198 27.5311 8.862C27.4097 8.51667 27.2091 8.24133 26.9291 8.036C26.6584 7.82133 26.2804 7.714 25.7951 7.714C25.3377 7.714 24.9644 7.82133 24.6751 8.036C24.3951 8.25067 24.1851 8.526 24.0451 8.862C23.9144 9.18867 23.8397 9.52467 23.8211 9.87C23.8117 10.0193 23.8071 10.1967 23.8071 10.402C23.8071 10.6073 23.8117 10.7893 23.8211 10.948C23.8304 11.2747 23.9051 11.5967 24.0451 11.914C24.1944 12.2313 24.4137 12.4927 24.7031 12.698C24.9924 12.9033 25.3564 13.006 25.7951 13.006Z" fill="#0151C2"/>
<g clip-path="url(#clip0_1_954)">
<path d="M32.5 13.1375L33.2417 13.875L37.3625 9.75L33.2375 5.625L32.5 6.3625L35.8875 9.75L32.5 13.1375Z" fill="#0151C2"/>
</g>
<g clip-path="url(#clip1_1_954)">
<path d="M37.5 13.1375L38.2417 13.875L42.3625 9.75L38.2375 5.625L37.5 6.3625L40.8875 9.75L37.5 13.1375Z" fill="#0151C2"/>
</g>
<defs>
<clipPath id="clip0_1_954">
<rect width="10" height="10" fill="white" transform="matrix(-1 0 0 -1 40 15)"/>
</clipPath>
<clipPath id="clip1_1_954">
<rect width="10" height="10" fill="white" transform="matrix(-1 0 0 -1 45 15)"/>
</clipPath>
</defs>
</svg>
